<?xml version="1.0" standalone="no"?><!DOCTYPE svg PUBLIC "-//W3C//DTD SVG 1.1//EN" "http://www.w3.org/Graphics/SVG/1.1/DTD/svg11.dtd"><svg t="1751359290092" class="icon" viewBox="0 0 1024 1024" version="1.1" xmlns="http://www.w3.org/2000/svg" p-id="5310" xmlns:xlink="http://www.w3.org/1999/xlink" width="1024" height="1024"><path d="M749 205.7H293.7l-230.1 230V891c0 37.8 30.7 68.5 68.5 68.5H749c37.8 0 68.5-30.7 68.5-68.5V274.2c0.1-37.8-30.7-68.5-68.5-68.5zM276.1 322v95.7l-95.7-1.1 95.7-94.6zM132.2 891V484.6l177.8 2.1h0.4c9 0 17.7-3.6 24.1-9.9 6.5-6.4 10.2-15.2 10.2-24.4V274.2H749V891H132.2z" fill="#2C2C2C" p-id="5311"></path><path d="M639.4 726.5H235c-18.9 0-34.3 15.3-34.3 34.3 0 18.9 15.3 34.3 34.3 34.3h404.4c18.9 0 34.3-15.3 34.3-34.3-0.1-18.9-15.4-34.3-34.3-34.3zM639.4 418.1H426.9c-18.9 0-34.3 15.3-34.3 34.3 0 18.9 15.3 34.3 34.3 34.3h212.5c18.9 0 34.3-15.3 34.3-34.3-0.1-18.9-15.4-34.3-34.3-34.3zM639.4 575.8H235c-18.9 0-34.3 15.3-34.3 34.3s15.3 34.3 34.3 34.3h404.4c18.9 0 34.3-15.3 34.3-34.3s-15.4-34.3-34.3-34.3zM925.1 63.9H465.9c-18.9 0-34.3 15.3-34.3 34.3s15.3 34.3 34.3 34.3h424.9v562c0 18.9 15.4 34.3 34.3 34.3s34.3-15.3 34.3-34.3V98.1c-0.1-18.9-15.4-34.2-34.3-34.2z" fill="#2C2C2C" p-id="5312"></path></svg>